<svg xmlns="http://www.w3.org/2000/svg" version="1.1" xmlns:xlink="http://www.w3.org/1999/xlink" xmlns:svgjs="http://svgjs.dev/svgjs" viewBox="0 0 800 800"><defs><linearGradient x1="50%" y1="0%" x2="50%" y2="100%" id="ffflurry-grad" gradientTransform="rotate(270)"><stop stop-color="hsl(238, 82%, 13%)" stop-opacity="1" offset="0%"></stop><stop stop-color="hsl(1.4, 100%, 67%)" stop-opacity="1" offset="45%"></stop><stop stop-color="hsl(167, 52%, 78%)" stop-opacity="1" offset="100%"></stop></linearGradient></defs><rect width="100%" height="100%" fill="hsl(238, 82%, 13%)"></rect><g fill="url(#ffflurry-grad)"><rect width="469" height="3" x="383.5" y="493.5" rx="1.5" transform="rotate(45, 618, 495)" opacity="0.30"></rect><rect width="726" height="3" x="-86" y="179.5" rx="1.5" transform="rotate(45, 277, 181)" opacity="0.17"></rect><rect width="244" height="3" x="164" y="497.5" rx="1.5" transform="rotate(45, 286, 499)" opacity="0.72"></rect><rect width="87" height="3" x="700.5" y="353.5" rx="1.5" transform="rotate(45, 744, 355)" opacity="0.83"></rect><rect width="428" height="3" x="-109" y="742.5" rx="1.5" transform="rotate(45, 105, 744)" opacity="0.91"></rect><rect width="105" height="3" x="-21.5" y="753.5" rx="1.5" transform="rotate(45, 31, 755)" opacity="0.92"></rect><rect width="671" height="3" x="300.5" y="317.5" rx="1.5" transform="rotate(45, 636, 319)" opacity="0.21"></rect><rect width="897" height="3" x="153.5" y="63.5" rx="1.5" transform="rotate(45, 602, 65)" opacity="0.49"></rect><rect width="170" height="3" x="115" y="517.5" rx="1.5" transform="rotate(45, 200, 519)" opacity="0.57"></rect><rect width="106" height="3" x="704" y="130.5" rx="1.5" transform="rotate(45, 757, 132)" opacity="0.22"></rect><rect width="54" height="3" x="132" y="648.5" rx="1.5" transform="rotate(45, 159, 650)" opacity="0.62"></rect><rect width="325" height="3" x="-45.5" y="450.5" rx="1.5" transform="rotate(45, 117, 452)" opacity="0.37"></rect><rect width="100" height="3" x="7" y="61.5" rx="1.5" transform="rotate(45, 57, 63)" opacity="0.35"></rect><rect width="484" height="3" x="-43" y="62.5" rx="1.5" transform="rotate(45, 199, 64)" opacity="0.68"></rect><rect width="583" height="3" x="453.5" y="613.5" rx="1.5" transform="rotate(45, 745, 615)" opacity="0.32"></rect><rect width="269" height="3" x="107.5" y="591.5" rx="1.5" transform="rotate(45, 242, 593)" opacity="0.20"></rect><rect width="666" height="3" x="338" y="167.5" rx="1.5" transform="rotate(45, 671, 169)" opacity="0.77"></rect><rect width="386" height="3" x="195" y="556.5" rx="1.5" transform="rotate(45, 388, 558)" opacity="0.33"></rect><rect width="555" height="3" x="459.5" y="484.5" rx="1.5" transform="rotate(45, 737, 486)" opacity="0.84"></rect><rect width="179" height="3" x="37.5" y="160.5" rx="1.5" transform="rotate(45, 127, 162)" opacity="0.96"></rect><rect width="404" height="3" x="527" y="41.5" rx="1.5" transform="rotate(45, 729, 43)" opacity="0.98"></rect><rect width="120" height="3" x="317" y="240.5" rx="1.5" transform="rotate(45, 377, 242)" opacity="0.80"></rect><rect width="48" height="3" x="444" y="415.5" rx="1.5" transform="rotate(45, 468, 417)" opacity="0.27"></rect><rect width="936" height="3" x="6" y="89.5" rx="1.5" transform="rotate(45, 474, 91)" opacity="0.57"></rect><rect width="552" height="3" x="-66" y="401.5" rx="1.5" transform="rotate(45, 210, 403)" opacity="0.92"></rect><rect width="388" height="3" x="378" y="201.5" rx="1.5" transform="rotate(45, 572, 203)" opacity="0.65"></rect><rect width="368" height="3" x="558" y="239.5" rx="1.5" transform="rotate(45, 742, 241)" opacity="0.35"></rect><rect width="359" height="3" x="-46.5" y="318.5" rx="1.5" transform="rotate(45, 133, 320)" opacity="0.63"></rect><rect width="489" height="3" x="174.5" y="654.5" rx="1.5" transform="rotate(45, 419, 656)" opacity="0.14"></rect><rect width="459" height="3" x="268.5" y="505.5" rx="1.5" transform="rotate(45, 498, 507)" opacity="0.48"></rect><rect width="514" height="3" x="-31" y="272.5" rx="1.5" transform="rotate(45, 226, 274)" opacity="0.71"></rect><rect width="230" height="3" x="334" y="713.5" rx="1.5" transform="rotate(45, 449, 715)" opacity="0.79"></rect><rect width="522" height="3" x="84" y="70.5" rx="1.5" transform="rotate(45, 345, 72)" opacity="0.98"></rect><rect width="558" height="3" x="-235" y="645.5" rx="1.5" transform="rotate(45, 44, 647)" opacity="0.16"></rect><rect width="197" height="3" x="291.5" y="487.5" rx="1.5" transform="rotate(45, 390, 489)" opacity="0.29"></rect><rect width="186" height="3" x="253" y="376.5" rx="1.5" transform="rotate(45, 346, 378)" opacity="0.29"></rect><rect width="159" height="3" x="410.5" y="269.5" rx="1.5" transform="rotate(45, 490, 271)" opacity="0.76"></rect><rect width="50" height="3" x="377" y="765.5" rx="1.5" transform="rotate(45, 402, 767)" opacity="0.20"></rect><rect width="294" height="3" x="112" y="672.5" rx="1.5" transform="rotate(45, 259, 674)" opacity="0.44"></rect><rect width="338" height="3" x="145" y="444.5" rx="1.5" transform="rotate(45, 314, 446)" opacity="0.59"></rect><rect width="173" height="3" x="665.5" y="735.5" rx="1.5" transform="rotate(45, 752, 737)" opacity="0.73"></rect><rect width="159" height="3" x="469.5" y="633.5" rx="1.5" transform="rotate(45, 549, 635)" opacity="0.66"></rect><rect width="351" height="3" x="-134.5" y="351.5" rx="1.5" transform="rotate(45, 41, 353)" opacity="0.44"></rect><rect width="512" height="3" x="392" y="632.5" rx="1.5" transform="rotate(45, 648, 634)" opacity="0.11"></rect><rect width="62" height="3" x="619" y="746.5" rx="1.5" transform="rotate(45, 650, 748)" opacity="0.60"></rect><rect width="454" height="3" x="335" y="388.5" rx="1.5" transform="rotate(45, 562, 390)" opacity="0.88"></rect><rect width="703" height="3" x="-247.5" y="569.5" rx="1.5" transform="rotate(45, 104, 571)" opacity="0.53"></rect><rect width="53" height="3" x="264.5" y="350.5" rx="1.5" transform="rotate(45, 291, 352)" opacity="0.89"></rect><rect width="180" height="3" x="476" y="757.5" rx="1.5" transform="rotate(45, 566, 759)" opacity="0.78"></rect><rect width="566" height="3" x="-84" y="748.5" rx="1.5" transform="rotate(45, 199, 750)" opacity="0.31"></rect><rect width="263" height="3" x="172.5" y="758.5" rx="1.5" transform="rotate(45, 304, 760)" opacity="0.26"></rect><rect width="34" height="3" x="371" y="420.5" rx="1.5" transform="rotate(45, 388, 422)" opacity="0.83"></rect><rect width="414" height="3" x="136" y="675.5" rx="1.5" transform="rotate(45, 343, 677)" opacity="0.33"></rect><rect width="417" height="3" x="294.5" y="745.5" rx="1.5" transform="rotate(45, 503, 747)" opacity="0.78"></rect><rect width="588" height="3" x="-260" y="497.5" rx="1.5" transform="rotate(45, 34, 499)" opacity="0.80"></rect><rect width="127" height="3" x="259.5" y="582.5" rx="1.5" transform="rotate(45, 323, 584)" opacity="0.83"></rect><rect width="53" height="3" x="391.5" y="340.5" rx="1.5" transform="rotate(45, 418, 342)" opacity="0.55"></rect><rect width="673" height="3" x="-282.5" y="223.5" rx="1.5" transform="rotate(45, 54, 225)" opacity="0.54"></rect><rect width="623" height="3" x="154.5" y="588.5" rx="1.5" transform="rotate(45, 466, 590)" opacity="0.99"></rect></g></svg>